<?xml version="1.0" encoding="utf-8"?>
<svg version="1.1" fill="currentColor"
     xmlns="http://www.w3.org/2000/svg" x="0px" y="0px"
     viewBox="0 0 316.4 439.5" xml:space="preserve">
	<title>Console</title>
    <path d="M225,195.7l-20.2,146.5c-0.6,3.9-4.1,6.6-8,6c-19.6-2.4-39.5-2.7-59.2-1c-3.9,0.3-7.3-2.6-7.6-6.5
	c0-0.5,0-1,0.1-1.5l20.5-148.3c1.9-12.7,6.9-22.2,14.8-28.2s17.2-8.8,27.8-8.1c10.6,0.7,19.1,4.5,25.3,11.5S226.9,183,225,195.7z"/>
    <path d="M273.8,66.3c0.6,41-28.6,72-68.4,72.4c-35.6,0.4-65.4-31.2-65.9-69.8C139,32.3,169.1,0.5,204.7,0
	C242.2-0.5,273.3,29.4,273.8,66.3z"/>
    <path d="M305.1,439.5H11.4c-7.9,0-13.6-8-10.5-15.3c14.8-35,79.7-61.4,157.4-61.4c17.4,0,34.7,1.3,51.9,4.1
	c29.3,4.8,54.8,13.5,73.7,24.8c15.4,9.2,26.4,20.1,31.6,32c2.5,5.7,0,12.3-5.7,14.9C308.2,439.2,306.7,439.5,305.1,439.5z"/>
    <path d="M301.2,381.4c-16.8-10.8-38.6-19.9-63.7-26.2c-1.5-0.4-2.5-1.9-2.1-3.4c0.1-0.5,0.4-1,0.7-1.3
	c2-2,4.3-3.8,6.8-5.1c9.6-5.2,23-5.8,35.9-0.6c14.3,5.8,24.1,17,26.3,28.6l0,0c0.4,1.9,0.6,3.8,0.5,5.8c0,1.6-1.3,2.8-2.9,2.8
	C302.2,381.9,301.6,381.7,301.2,381.4z"/>
</svg>
